<?xml version="1.0" encoding="UTF-8"?> <!-- Generator: Adobe Illustrator 26.0.0, SVG Export Plug-In . SVG Version: 6.00 Build 0) --> <svg xmlns="http://www.w3.org/2000/svg" xmlns:xlink="http://www.w3.org/1999/xlink" version="1.1" id="Layer_1" x="0px" y="0px" width="1347.8px" height="898.6px" viewBox="0 0 1347.8 898.6" style="enable-background:new 0 0 1347.8 898.6;" xml:space="preserve"> <style type="text/css"> .st0{fill:url(#SVGID_1_);} .st1{opacity:0.75;} .st2{opacity:0.4;fill:#FFFFFF;enable-background:new ;} .st3{opacity:0.6;fill:#FFFFFF;enable-background:new ;} .st4{opacity:0.3;fill:#FFFFFF;enable-background:new ;} .st5{opacity:0.5;fill:#FFFFFF;enable-background:new ;} .st6{opacity:0.25;fill:#FFFFFF;enable-background:new ;} .st7{opacity:0.15;fill:#FFFFFF;enable-background:new ;} .st8{opacity:0.2;fill:#FFFFFF;enable-background:new ;} </style> <radialGradient id="SVGID_1_" cx="673.9" cy="1469.3" r="572.718" gradientTransform="matrix(1 0 0 1 0 -1020)" gradientUnits="userSpaceOnUse"> <stop offset="5.327789e-09" style="stop-color:#183E63"></stop> <stop offset="1" style="stop-color:#081A2E"></stop> </radialGradient> <rect class="st0" width="1347.8" height="898.6"></rect> <g class="st1"> <circle class="st2" cx="526.2" cy="608.1" r="265.5"></circle> <circle class="st3" cx="563.8" cy="558.6" r="265.5"></circle> <circle class="st4" cx="361.2" cy="370.1" r="265.5"></circle> <path class="st2" d="M141.3,206.8c-51.9,0-100.4,14.9-141.3,40.7v449.7c40.9,25.8,89.4,40.7,141.3,40.7 c146.6,0,265.5-118.9,265.5-265.5S288,206.8,141.3,206.8z"></path> <path class="st5" d="M829.6,898.6c0.6-7.3,0.9-14.7,0.9-22.2c0-146.6-118.9-265.5-265.5-265.5S299.5,729.7,299.5,876.3 c0,7.5,0.3,14.9,0.9,22.2L829.6,898.6L829.6,898.6z"></path> <path class="st6" d="M332.1,898.6H567c87.7-43.3,148.1-133.7,148.1-238.2c0-146.6-118.9-265.5-265.5-265.5S184,513.7,184,660.4 C184,764.8,244.4,855.2,332.1,898.6z"></path> <path class="st6" d="M1347.8,589.4c-47.7-70.6-128.5-117-220.1-117c-146.6,0-265.5,118.9-265.5,265.5c0,60.4,20.2,116,54.1,160.7 h422.8c3-4,5.9-8,8.7-12.2V589.4z"></path> <path class="st7" d="M1347.8,172c-48.4-64.7-125.7-106.6-212.8-106.6c-146.6,0-265.5,118.9-265.5,265.5S988.4,596.4,1135,596.4 c87.1,0,164.3-41.9,212.8-106.6V172z"></path> <path class="st8" d="M1347.8,104.6c-48.7-56.9-121-92.9-201.8-92.9c-146.6,0-265.5,118.9-265.5,265.5S999.4,542.7,1146,542.7 c80.7,0,153.1-36.1,201.8-92.9V104.6z"></path> <path class="st7" d="M0,0v296.7c26.4,8.8,54.6,13.6,84,13.6c146.6,0,265.5-118.9,265.5-265.5c0-15.2-1.3-30.2-3.8-44.7H0V0z"></path> <path class="st7" d="M337.3,0C385.8,63.9,462.6,105.2,549,105.2S712.2,63.9,760.7,0H337.3z"></path> <path class="st6" d="M563.1,0H336c-89.9,42.6-152,134.1-152,240.1c0,146.6,118.9,265.5,265.5,265.5S715,386.7,715,240.1 C715.1,134.1,653,42.6,563.1,0z"></path> <path class="st7" d="M604.8,0c-0.5,6.6-0.7,13.2-0.7,19.9c0,146.6,118.9,265.5,265.5,265.5s265.5-118.9,265.5-265.5 c0-6.7-0.3-13.3-0.7-19.9C1134.4,0,604.8,0,604.8,0z"></path> <path class="st7" d="M858.6,0C885,118.8,991,207.5,1117.7,207.5c98.4,0,184.2-53.5,230.1-133V0H858.6z"></path> <path class="st7" d="M1068,0c-2.5,14.5-3.8,29.5-3.8,44.7c0,146.6,118.9,265.5,265.5,265.5c6.1,0,12.1-0.2,18.1-0.6V0H1068z"></path> </g> </svg> 